# xmcd CD database file
#
# Track frame offsets:
#	150
#	17200
#	35476
#
# Disc length: 714 seconds
#
# Revision: 0
# Processed by: cddbd v1.5.1PL0 Copyright (c) Steve Scherf et al.
# Submitted via: CDex 1.50beta8
#
DISCID=1d02c803
DTITLE=石毛佐和 - オモチャ
DYEAR=2004
DGENRE=Vocal
TTITLE0=悲しみのカケラ
TTITLE1=三日月アイス
TTITLE2=ポケット、ゆらり
EXTD=YEAR: 2004
EXTT0=
EXTT1=
EXTT2=
PLAYORDER=
